<?xml version="1.0" encoding="UTF-8"?>
<svg width="96px" height="32px" viewBox="0 0 96 32" version="1.1" xmlns="http://www.w3.org/2000/svg" xmlns:xlink="http://www.w3.org/1999/xlink">
    <!-- Generator: Sketch 42 (36781) - http://www.bohemiancoding.com/sketch -->
    <title>AppStore Badge</title>
    <desc>Created with Sketch.</desc>
    <defs></defs>
    <g id="Symbols" stroke="none" stroke-width="1" fill="none" fill-rule="evenodd">
        <g id="Foot-Mobi" transform="translate(-48.000000, -96.000000)">
            <g id="AppStore-Badge">
                <g transform="translate(48.000000, 96.000000)">
                    <rect id="O" fill="#3C3C3C" x="0" y="0" width="96" height="32" rx="4"></rect>
                    <g id="TXT" transform="translate(29.465721, 6.340426)" fill="#FFFFFF">
                        <g id="Group" transform="translate(0.146333, 8.592908)">
                            <path d="M8.50246006,9.97218462 L6.84431607,9.97218462 L5.93602407,7.08553846 L2.77890623,7.08553846 L1.91369238,9.97218462 L0.299356687,9.97218462 L3.427269,0.144738462 L5.35921484,0.144738462 L8.50246006,9.97218462 L8.50246006,9.97218462 Z M5.66222222,5.87446154 L4.84081668,3.30830769 C4.75393022,3.04615385 4.59110939,2.4288 4.3508939,1.45698462 L4.32168837,1.45698462 C4.22604026,1.87495385 4.07198109,2.49230769 3.86024099,3.30830769 L3.05343821,5.87446154 L5.66222222,5.87446154 L5.66222222,5.87446154 Z" id="Shape"></path>
                            <path d="M16.5463933,6.34190769 C16.5463933,7.54707692 16.2244023,8.49969231 15.5804204,9.19901538 C15.0036111,9.82153846 14.2873455,10.1324308 13.4323536,10.1324308 C12.5094588,10.1324308 11.8464933,9.79716923 11.4427268,9.12664615 L11.4135213,9.12664615 L11.4135213,12.8595692 L9.85686654,12.8595692 L9.85686654,5.21870769 C9.85686654,4.46104615 9.8371528,3.68344615 9.79918562,2.88590769 L11.1681949,2.88590769 L11.2550813,4.00910769 L11.2842868,4.00910769 C11.8034151,3.16283077 12.5912343,2.74043077 13.6484745,2.74043077 C14.474991,2.74043077 15.1649717,3.07052308 15.7169562,3.73144615 C16.270401,4.39310769 16.5463933,5.26301538 16.5463933,6.34190769 L16.5463933,6.34190769 Z M14.960533,6.39950769 C14.960533,5.70978462 14.807204,5.14116923 14.4990856,4.69366154 C14.1624919,4.22695385 13.7105363,3.9936 13.143949,3.9936 C12.7598963,3.9936 12.4108902,4.12356923 12.0991211,4.37981538 C11.786622,4.63827692 11.5821833,4.97575385 11.4865351,5.39372308 C11.438346,5.58867692 11.4142515,5.74818462 11.4142515,5.87372308 L11.4142515,7.05526154 C11.4142515,7.57070769 11.570501,8.00566154 11.8830002,8.36086154 C12.1954994,8.71606154 12.6014563,8.89329231 13.1008708,8.89329231 C13.6871719,8.89329231 14.1435083,8.66436923 14.4698801,8.208 C14.796982,7.75089231 14.960533,7.14830769 14.960533,6.39950769 L14.960533,6.39950769 Z" id="Shape"></path>
                            <path d="M24.6049293,6.34190769 C24.6049293,7.54707692 24.2829383,8.49969231 23.6382262,9.19901538 C23.0621471,9.82153846 22.3458815,10.1324308 21.4908896,10.1324308 C20.5679948,10.1324308 19.9050293,9.79716923 19.501993,9.12664615 L19.4727874,9.12664615 L19.4727874,12.8595692 L17.9161327,12.8595692 L17.9161327,5.21870769 C17.9161327,4.46104615 17.8964189,3.68344615 17.8584518,2.88590769 L19.227461,2.88590769 L19.3143474,4.00910769 L19.343553,4.00910769 C19.8619511,3.16283077 20.6497703,2.74043077 21.7077407,2.74043077 C22.533527,2.74043077 23.2235077,3.07052308 23.7769525,3.73144615 C24.3282069,4.39310769 24.6049293,5.26301538 24.6049293,6.34190769 L24.6049293,6.34190769 Z M23.019069,6.39950769 C23.019069,5.70978462 22.8650098,5.14116923 22.5568915,4.69366154 C22.2202977,4.22695385 21.7698024,3.9936 21.202485,3.9936 C20.8177021,3.9936 20.4694262,4.12356923 20.156927,4.37981538 C19.8444278,4.63827692 19.6407192,4.97575385 19.5450711,5.39372308 C19.4976121,5.58867692 19.4727874,5.74818462 19.4727874,5.87372308 L19.4727874,7.05526154 C19.4727874,7.57070769 19.629037,8.00566154 19.9400759,8.36086154 C20.2525751,8.71532308 20.658532,8.89329231 21.1594068,8.89329231 C21.7457079,8.89329231 22.2020443,8.66436923 22.5284161,8.208 C22.855518,7.75089231 23.019069,7.14830769 23.019069,6.39950769 L23.019069,6.39950769 Z" id="Shape"></path>
                            <path d="M33.6148354,7.21624615 C33.6148354,8.05218462 33.3278911,8.73230769 32.751812,9.25735385 C32.1187821,9.83113846 31.2375053,10.1176615 30.1050608,10.1176615 C29.0595028,10.1176615 28.2213041,9.91384615 27.586814,9.50547692 L27.9475023,8.19323077 C28.6309117,8.6112 29.3807637,8.82092308 30.1977884,8.82092308 C30.7840894,8.82092308 31.2404258,8.68652308 31.5682579,8.4192 C31.8946297,8.15187692 32.0574505,7.79298462 32.0574505,7.34547692 C32.0574505,6.94670769 31.9231051,6.61070769 31.6536841,6.33821538 C31.3857233,6.06572308 30.9381486,5.81243077 30.3131502,5.57833846 C28.6119281,4.93661538 27.7620471,3.99655385 27.7620471,2.76036923 C27.7620471,1.95249231 28.0599435,1.29009231 28.6564665,0.774646154 C29.2507991,0.258461538 30.0437292,0.000738461538 31.035257,0.000738461538 C31.9194544,0.000738461538 32.6539735,0.156553846 33.2402745,0.467446154 L32.8511108,1.75089231 C32.3035071,1.4496 31.6843499,1.29895385 30.9914487,1.29895385 C30.443845,1.29895385 30.015984,1.43556923 29.7093259,1.70732308 C29.4501268,1.95027692 29.3201622,2.2464 29.3201622,2.59716923 C29.3201622,2.9856 29.4683803,3.30683077 29.7662767,3.55938462 C30.0254758,3.79273846 30.4964149,4.04529231 31.1798243,4.31778462 C32.0158327,4.65821538 32.6298789,5.05624615 33.0248837,5.51261538 C33.4184283,5.96750769 33.6148354,6.53686154 33.6148354,7.21624615 L33.6148354,7.21624615 Z" id="Shape"></path>
                            <path d="M38.7615801,4.06744615 L37.0457551,4.06744615 L37.0457551,7.50793846 C37.0457551,8.38301538 37.3480324,8.82018462 37.9540471,8.82018462 C38.2322298,8.82018462 38.4629535,8.79581538 38.6454881,8.74707692 L38.6885662,9.94264615 C38.3819082,10.0585846 37.9781417,10.1169231 37.477997,10.1169231 C36.8632206,10.1169231 36.3827896,9.92713846 36.0359739,9.54830769 C35.6906185,9.16873846 35.5168456,8.53218462 35.5168456,7.63790769 L35.5168456,4.06596923 L34.4946521,4.06596923 L34.4946521,2.88443077 L35.5168456,2.88443077 L35.5168456,1.58695385 L37.0457551,1.12024615 L37.0457551,2.88443077 L38.7615801,2.88443077 L38.7615801,4.06744615 L38.7615801,4.06744615 Z" id="Shape"></path>
                            <path d="M46.503236,6.37070769 C46.503236,7.45993846 46.1951177,8.35421538 45.5803413,9.05353846 C44.9356292,9.77353846 44.0799072,10.1324308 43.0131752,10.1324308 C41.9851405,10.1324308 41.1666555,9.78756923 40.5562599,9.09784615 C39.9458643,8.40812308 39.6406665,7.53747692 39.6406665,6.48812308 C39.6406665,5.39003077 39.954626,4.49058462 40.5847353,3.79126154 C41.2133843,3.0912 42.061805,2.74116923 43.128537,2.74116923 C44.1565717,2.74116923 44.9838183,3.08603077 45.6080865,3.77649231 C46.2053396,4.44627692 46.503236,5.31101538 46.503236,6.37070769 L46.503236,6.37070769 Z M44.8881702,6.42166154 C44.8881702,5.76812308 44.7501741,5.20763077 44.4705311,4.74018462 C44.1441593,4.17452308 43.677601,3.89243077 43.0730465,3.89243077 C42.447318,3.89243077 41.971998,4.17526154 41.6456262,4.74018462 C41.3659832,5.20836923 41.2279871,5.77772308 41.2279871,6.4512 C41.2279871,7.10473846 41.3659832,7.66523077 41.6456262,8.13193846 C41.9822199,8.6976 42.452429,8.97969231 43.0591739,8.97969231 C43.6535064,8.97969231 44.1200648,8.69169231 44.4566585,8.11716923 C44.7436028,7.64086154 44.8881702,7.07446154 44.8881702,6.42166154 L44.8881702,6.42166154 Z" id="Shape"></path>
                            <path d="M51.5630942,4.27052308 C51.409035,4.24172308 51.2447539,4.22695385 51.0724413,4.22695385 C50.5248376,4.22695385 50.1013574,4.43593846 49.803461,4.85464615 C49.5442619,5.22387692 49.4142973,5.69058462 49.4142973,6.25403077 L49.4142973,9.97218462 L47.8583727,9.97218462 L47.8729754,5.11753846 C47.8729754,4.3008 47.8532617,3.55716923 47.8145644,2.88664615 L49.1704311,2.88664615 L49.2273819,4.24246154 L49.2704601,4.24246154 C49.4347412,3.77649231 49.6939403,3.40135385 50.0487874,3.12 C50.3956031,2.86670769 50.7701641,2.74043077 51.1739305,2.74043077 C51.3177677,2.74043077 51.4477324,2.75076923 51.5630942,2.76923077 L51.5630942,4.27052308 L51.5630942,4.27052308 Z" id="Shape"></path>
                            <path d="M58.5249625,6.09378462 C58.5249625,6.37587692 58.5067091,6.61366154 58.4680117,6.80787692 L53.7980474,6.80787692 C53.8163009,7.50793846 54.0419136,8.04332308 54.4756157,8.41255385 C54.8691603,8.74264615 55.3780666,8.90806154 56.003065,8.90806154 C56.6945059,8.90806154 57.3253454,8.79655385 57.8926628,8.5728 L58.136529,9.66572308 C57.4735634,9.95815385 56.6908552,10.1036308 55.7876742,10.1036308 C54.7012285,10.1036308 53.848427,9.78018462 53.2278094,9.13403077 C52.6086522,8.48787692 52.2983434,7.62018462 52.2983434,6.53169231 C52.2983434,5.46313846 52.586748,4.57329231 53.1642874,3.86363077 C53.7688419,3.10596923 54.5858666,2.72713846 55.6139013,2.72713846 C56.6236825,2.72713846 57.3881373,3.10596923 57.9072656,3.86363077 C58.3183334,4.46547692 58.5249625,5.20984615 58.5249625,6.09378462 L58.5249625,6.09378462 Z M57.0405914,5.68541538 C57.0508134,5.21870769 56.9493242,4.81550769 56.7383142,4.47507692 C56.4688932,4.03716923 56.0549048,3.81858462 55.4978093,3.81858462 C54.9889029,3.81858462 54.5749145,4.032 54.2587647,4.46030769 C53.9995656,4.80073846 53.8455064,5.20910769 53.7980474,5.68467692 L57.0405914,5.68467692 L57.0405914,5.68541538 Z" id="Shape"></path>
                        </g>
                        <path d="M0.205285904,5.02742686 L0.205285904,4.4431516 C0.695869031,4.6242252 1.12012232,4.71476064 1.47805851,4.71476064 C1.79599006,4.71476064 2.05022622,4.63475257 2.2407746,4.47473404 C2.43132298,4.31471551 2.52659574,4.1020625 2.52659574,3.83676862 C2.52659574,3.51673156 2.40131996,3.27302278 2.15076463,3.10563497 C1.9002093,2.93824717 1.53385658,2.85455452 1.05169548,2.85455452 L0.953789894,2.85455452 L0.953789894,2.38713431 L1.04537899,2.38713431 C1.47700792,2.38713431 1.81177851,2.30870535 2.0497008,2.15184508 C2.28762309,1.99498481 2.40658245,1.77338352 2.40658245,1.48703457 C2.40658245,1.25963982 2.32604801,1.08909631 2.16497673,0.975398936 C2.00390544,0.861701559 1.76335488,0.804853723 1.44331782,0.804853723 C1.10854221,0.804853723 0.722187473,0.885914526 0.284242021,1.04803856 L0.284242021,0.511136968 C0.686393855,0.380595535 1.08538144,0.315325798 1.48121676,0.315325798 C1.99285495,0.315325798 2.38868433,0.412704035 2.66871676,0.607463431 C2.94874918,0.802222827 3.0887633,1.07856647 3.0887633,1.43650266 C3.0887633,1.990251 2.74978176,2.36713109 2.07180851,2.56715426 C2.43606122,2.62610845 2.71977403,2.76243798 2.92295545,2.97614694 C3.12613688,3.1898559 3.22772606,3.45672491 3.22772606,3.77676197 C3.22772606,4.18733583 3.06086714,4.53105469 2.72714428,4.80792886 C2.39342143,5.08480302 1.98022188,5.22323803 1.48753324,5.22323803 C1.04537678,5.22323803 0.617965273,5.15796829 0.205285904,5.02742686 Z M5.88696809,4.67054521 C5.51429335,5.01374285 5.15530979,5.1853391 4.81000665,5.1853391 C4.52576321,5.1853391 4.28994996,5.09638276 4.10255984,4.91846742 C3.91516972,4.74055208 3.82147606,4.51579258 3.82147606,4.24418218 C3.82147606,3.86940194 3.97886035,3.58147818 4.29363364,3.38040226 C4.60840694,3.17932634 5.05950504,3.07878989 5.64694149,3.07878989 L5.79537899,3.07878989 L5.79537899,2.66505984 C5.79537899,2.26711902 5.59114788,2.0681516 5.18267952,2.0681516 C4.85422043,2.0681516 4.49944783,2.16921441 4.11835106,2.37134309 L4.11835106,1.8565492 C4.53734695,1.68600314 4.93001812,1.60073138 5.29637633,1.60073138 C5.6795786,1.60073138 5.96223867,1.68705587 6.14436503,1.85970745 C6.32649138,2.03235902 6.41755319,2.30080713 6.41755319,2.66505984 L6.41755319,4.21891622 C6.41755319,4.5747469 6.52703791,4.75265957 6.74601064,4.75265957 C6.77338223,4.75265957 6.81338626,4.74844862 6.86602394,4.7400266 L6.91023936,5.08427527 C6.76917039,5.15165149 6.61336521,5.1853391 6.44281915,5.1853391 C6.15225919,5.1853391 5.96697735,5.01374285 5.88696809,4.67054521 Z M5.79537899,4.33261303 L5.79537899,3.44514628 L5.58693484,3.43882979 C5.24584271,3.43882979 4.97002543,3.50357316 4.75947473,3.63306184 C4.54892404,3.76255051 4.44365027,3.93256765 4.44365027,4.14311835 C4.44365027,4.29260935 4.49628715,4.41893787 4.6015625,4.52210771 C4.70683785,4.62527755 4.83527185,4.6768617 4.98686835,4.6768617 C5.24584571,4.6768617 5.51534656,4.56211329 5.79537899,4.33261303 Z M7.6903258,5.10638298 L7.6903258,1.67652926 L10.1853391,1.67652926 L10.1853391,2.22290559 L8.3125,2.22290559 L8.3125,5.10638298 L7.6903258,5.10638298 Z M10.8864694,6.35388963 L10.8864694,1.67652926 L11.5086436,1.67652926 L11.5086436,2.32081117 C11.76341,1.84075558 12.1455537,1.60073138 12.6550864,1.60073138 C13.0677658,1.60073138 13.3925354,1.75127287 13.6294049,2.05236037 C13.8662745,2.35344787 13.9847074,2.76506831 13.9847074,3.28723404 C13.9847074,3.85572093 13.8504834,4.3141882 13.5820312,4.6626496 C13.3135791,5.01111101 12.9603856,5.1853391 12.5224402,5.1853391 C12.1160773,5.1853391 11.7781485,5.02953392 11.5086436,4.71791888 L11.5086436,6.35388963 L10.8864694,6.35388963 Z M11.5086436,4.28839761 C11.8286807,4.57474656 12.1339746,4.71791888 12.4245346,4.71791888 C13.0224986,4.71791888 13.3214761,4.26208346 13.3214761,3.35039894 C13.3214761,2.54609527 13.0561862,2.14394947 12.5255984,2.14394947 C12.1781898,2.14394947 11.8392082,2.33238952 11.5086436,2.70927527 L11.5086436,4.28839761 Z M14.7079455,6.35388963 L14.7079455,5.8075133 L14.7963763,5.8075133 C15.1290464,5.8075133 15.3559114,5.76593016 15.4769781,5.68276263 C15.5980447,5.59959511 15.711214,5.40747048 15.8164894,5.10638298 L14.4900266,1.67652926 L15.1595745,1.67652926 L16.1544215,4.25365691 L16.160738,4.25365691 L17.193484,1.67652926 L17.7809176,1.67652926 L16.4386636,5.02742686 C16.2070578,5.60644128 15.9959839,5.97226763 15.8054355,6.12491689 C15.6148871,6.27756614 15.2732737,6.35388963 14.7805851,6.35388963 L14.7079455,6.35388963 Z M18.0651596,5.0369016 L18.0651596,4.51263298 C18.3936187,4.6389634 18.7315475,4.70212766 19.0789561,4.70212766 C19.3210894,4.70212766 19.517425,4.64685893 19.6679688,4.53631981 C19.8185125,4.4257807 19.8937832,4.282082 19.8937832,4.10521941 C19.8937832,3.89677422 19.810617,3.74044268 19.6442819,3.63622008 C19.4779469,3.53199748 19.228448,3.47988697 18.8957779,3.47988697 L18.8136636,3.47988697 L18.8136636,3.06931516 L18.9178856,3.06931516 C19.2126566,3.06931516 19.4342579,3.02773202 19.5826961,2.94456449 C19.7311344,2.86139697 19.8053524,2.73664755 19.8053524,2.5703125 C19.8053524,2.40608296 19.7390299,2.28238628 19.606383,2.19921875 C19.473736,2.11605122 19.2747686,2.07446809 19.0094747,2.07446809 C18.7441809,2.07446809 18.4494143,2.13236866 18.1251662,2.24817154 L18.1251662,1.74601064 C18.4262537,1.64915732 18.7589188,1.60073138 19.1231715,1.60073138 C19.5358509,1.60073138 19.858515,1.67442302 20.0911735,1.82180851 C20.3238321,1.969194 20.4401596,2.17447785 20.4401596,2.43766622 C20.4401596,2.60400127 20.3875227,2.75612187 20.2822473,2.89403258 C20.176972,3.03194329 20.0201141,3.1566927 19.8116689,3.26828457 C20.0559077,3.34408283 20.2396104,3.45198844 20.3627826,3.59200465 C20.4859547,3.73202087 20.5475399,3.90414348 20.5475399,4.10837766 C20.5475399,4.41788719 20.4059467,4.67475518 20.122756,4.87898936 C19.8395653,5.08322354 19.4842663,5.1853391 19.0568484,5.1853391 C18.7789215,5.1853391 18.4483618,5.13586042 18.0651596,5.0369016 Z M21.5234375,5.10638298 L21.5234375,1.67652926 L22.1077128,1.67652926 L22.1077128,4.27260638 L23.7057846,1.67652926 L24.3279588,1.67652926 L24.3279588,5.10638298 L23.7436835,5.10638298 L23.7436835,2.51030585 L22.1487699,5.10638298 L21.5234375,5.10638298 Z M26.2418551,5.10638298 L26.2418551,2.17553191 L25.0322473,2.17553191 L25.0322473,1.67652926 L28.073637,1.67652926 L28.073637,2.17553191 L26.8640293,2.17553191 L26.8640293,5.10638298 L26.2418551,5.10638298 Z M31.2855718,4.99584441 C30.8686814,5.12217483 30.5118033,5.1853391 30.2149269,5.1853391 C29.7096052,5.1853391 29.2974584,5.01742743 28.9784741,4.68159907 C28.6594898,4.34577071 28.5,3.91046367 28.5,3.37566489 C28.5,2.85560467 28.6405405,2.4292459 28.9216257,2.0965758 C29.2027108,1.76390569 29.5622208,1.59757314 30.0001662,1.59757314 C30.4149511,1.59757314 30.7355097,1.74495642 30.9618517,2.03972739 C31.1881937,2.33449837 31.301363,2.75348798 31.301363,3.29670878 L31.2982048,3.4893617 L29.1348072,3.4893617 C29.225344,4.3041929 29.6243316,4.71160239 30.3317819,4.71160239 C30.5907593,4.71160239 30.9086861,4.64212171 31.2855718,4.50315824 L31.2855718,4.99584441 Z M29.1632314,3.02194149 L30.6760306,3.02194149 C30.6760306,2.38397287 30.4381119,2.06499335 29.9622673,2.06499335 C29.4843172,2.06499335 29.2179746,2.38397287 29.1632314,3.02194149 Z M34.4217088,5.10638298 L34.4217088,1.67652926 L35.6155253,1.67652926 C35.9776725,1.67652926 36.2492788,1.73864078 36.4303524,1.86286569 C36.611426,1.9870906 36.7019614,2.17342518 36.7019614,2.421875 C36.7019614,2.6324257 36.6472191,2.81191748 36.5377327,2.96035572 C36.4282463,3.10879396 36.2640193,3.22722695 36.0450465,3.31565824 C36.3103404,3.40198403 36.5093078,3.52199613 36.6419548,3.67569814 C36.7746017,3.82940015 36.8409242,4.0178402 36.8409242,4.24102394 C36.8409242,4.51263434 36.7430196,4.72476098 36.5472074,4.87741024 C36.3513953,5.0300595 36.0818944,5.10638298 35.7386968,5.10638298 L34.4217088,5.10638298 Z M35.0407247,4.63896277 L35.2997008,4.63896277 C35.6513205,4.63896277 35.8871337,4.607907 36.0071476,4.54579455 C36.1271615,4.48368209 36.1871676,4.36314363 36.1871676,4.18417553 C36.1871676,3.9925744 36.1087386,3.83729559 35.9518783,3.71833444 C35.7950181,3.5993733 35.5892078,3.53989362 35.3344415,3.53989362 L35.0407247,3.53989362 L35.0407247,4.63896277 Z M35.0407247,3.12932181 L35.353391,3.12932181 C35.82713,3.12932181 36.063996,2.93667081 36.063996,2.55136303 C36.063996,2.41661059 36.0076745,2.3150214 35.8950299,2.24659242 C35.7823853,2.17816344 35.6144736,2.14394947 35.3912899,2.14394947 L35.0407247,2.14394947 L35.0407247,3.12932181 Z" id="Загрузите-в"></path>
                    </g>
                    <g id="Logo" transform="translate(6.619385, 4.666667)" fill="#FFFFFF">
                        <path d="M14.3995461,11.0272 C14.3765106,8.4488 16.495773,7.1944 16.5926809,7.136 C15.3924539,5.3736 13.5321418,5.1328 12.8784113,5.1136 C11.3159716,4.948 9.80039716,6.0552 9.00448227,6.0552 C8.19268085,6.0552 6.96703546,5.1296 5.64607092,5.1568 C3.94621277,5.1832 2.35597163,6.1744 1.48380142,7.7136 C-0.316141844,10.852 1.0262695,15.464 2.75075177,18.0008 C3.61339007,19.2432 4.62139007,20.6304 5.94076596,20.5816 C7.2315461,20.528 7.71370213,19.7528 9.27137589,19.7528 C10.8147518,19.7528 11.2675177,20.5816 12.6131064,20.5504 C13.9984113,20.528 14.8705816,19.3024 15.7030355,18.0488 C16.6999149,16.6248 17.1002553,15.2224 17.1161418,15.1504 C17.0835745,15.1392 14.4257589,14.1176 14.3995461,11.0272 L14.3995461,11.0272 Z" id="Shape"></path>
                        <path d="M11.8577021,3.4448 C12.5519433,2.5704 13.0269504,1.3808 12.8950922,0.1736 C11.8902695,0.2184 10.6336454,0.8736 9.91001418,1.7288 C9.26978723,2.4824 8.69787234,3.7176 8.84561702,4.8792 C9.97435461,4.964 11.1332766,4.3056 11.8577021,3.4448 L11.8577021,3.4448 Z" id="Shape"></path>
                    </g>
                </g>
            </g>
        </g>
    </g>
</svg>