<?xml version="1.0" encoding="UTF-8"?>
<svg width="88px" height="64px" viewBox="0 0 88 64" version="1.1" xmlns="http://www.w3.org/2000/svg" xmlns:xlink="http://www.w3.org/1999/xlink">
    <!-- Generator: Sketch 44 (41411) - http://www.bohemiancoding.com/sketch -->
    <title>flexible-schedule</title>
    <desc>Created with Sketch.</desc>
    <defs></defs>
    <g id="Icons" stroke="none" stroke-width="1" fill="none" fill-rule="evenodd">
        <g id="flexible-schedule">
            <g transform="translate(7.000000, 3.000000)">
                <g id="Group-3">
                    <path d="M0,10.0053084 C0,6.68866815 2.68841994,4 6.00931836,4 L52.9906816,4 C56.3095365,4 59,6.6936084 59,10.0053084 L59,17 L0,17 L0,10.0053084 Z" id="Rectangle-35" fill="#FF3C41"></path>
                    <path d="M1,18 L58,18" id="Line" stroke="#3C3C3C" stroke-width="2" stroke-linecap="square"></path>
                    <g id="Group-2" transform="translate(19.000000, 0.000000)" stroke="#3C3C3C" stroke-width="2" stroke-linecap="square">
                        <path d="M1,8 L1,0" id="Line"></path>
                        <path d="M20,8 L20,0" id="Line"></path>
                    </g>
                    <path d="M58,58 L58,8.99298096 C58,6.23540351 55.7582393,4 52.9906816,4 L6.00931836,4 C3.2408544,4 1,6.23528729 1,8.99298096 L1,53.007019 C1,55.7645965 3.24176066,58 6.00931836,58 L58,58 Z" id="Rectangle-6" stroke="#3C3C3C" stroke-width="2"></path>
                    <path d="M58,58 C66.836556,58 74,50.836556 74,42 C74,33.163444 66.836556,26 58,26 C49.163444,26 42,33.163444 42,42 C42,50.836556 49.163444,58 58,58 Z" id="Oval-11" stroke="#3C3C3C" stroke-width="2" fill="#FFFFFF"></path>
                    <path d="M73.0746848,46.48 C73.0746848,38.3017446 66.265883,31.6719586 57.8668002,31.6719586 C49.4677174,31.6719586 42.6589156,38.3017446 42.6589156,46.48 C42.6589156,46.48 40.0358745,36.2850737 45.2568049,31.6719588 C50.4777354,27.0588438 57.8667998,26 57.8667998,26 C57.8667998,26 70.9927278,29.4332214 73.0746856,34.7870921 C75.1566434,40.1409629 73.0746848,46.48 73.0746848,46.48 Z" id="Oval-11" fill="#DCDCDC"></path>
                    <path d="M58,58 C66.836556,58 74,50.836556 74,42 C74,33.163444 66.836556,26 58,26 C49.163444,26 42,33.163444 42,42 C42,50.836556 49.163444,58 58,58 Z" id="Oval-11" stroke="#3C3C3C" stroke-width="2"></path>
                    <path d="M58,33 L58,44" id="Line" stroke="#3C3C3C" stroke-width="2" stroke-linecap="square"></path>
                    <path d="M63,39 L56,42" id="Line" stroke="#3C3C3C" stroke-width="2" stroke-linecap="square"></path>
                    <polygon id="7" fill="#3C3C3C" points="24 28 24 30.8414286 31 31 25.4877143 45 29.0334286 45 34.7891429 30.8414286 34.7891429 28"></polygon>
                </g>
                <rect id="Rectangle-6" fill="#DCDCDC" x="2" y="19" width="55" height="4"></rect>
            </g>
        </g>
    </g>
</svg>