<?xml version="1.0" encoding="UTF-8"?>
<svg width="88px" height="64px" viewBox="0 0 88 64" version="1.1" xmlns="http://www.w3.org/2000/svg" xmlns:xlink="http://www.w3.org/1999/xlink">
    <!-- Generator: Sketch 44 (41411) - http://www.bohemiancoding.com/sketch -->
    <title>experience&amp;technologies</title>
    <desc>Created with Sketch.</desc>
    <defs>
        <path d="M0,7.99344981 C0,5.78792838 1.78867531,4 3.99642766,4 L58.0035723,4 C60.2107384,4 62,5.79182266 62,7.99344981 L62,45.0065502 C62,47.2120716 60.2113247,49 58.0035723,49 L3.99642766,49 C1.78926161,49 0,47.2081773 0,45.0065502 L0,7.99344981 Z" id="path-1"></path>
    </defs>
    <g id="Icons" stroke="none" stroke-width="1" fill="none" fill-rule="evenodd">
        <g id="experience&amp;technologies">
            <g id="Group-3" transform="translate(0.000000, 1.000000)">
                <polygon id="Rectangle-6" fill="#DCDCDC" points="18 48 67 48 67 52 16 52"></polygon>
                <path d="M20.2886667,43.0920579 L16.1894758,53.6328346 C15.6412529,55.0425506 16.2968836,56 17.8049592,56 L44.8091739,56 C46.3170431,56 46.97181,55.0397986 46.4246574,53.6328346 L42.3254664,43.0920579 C41.6717508,41.4110748 39.6074297,40 37.8076973,40 L24.8064358,40 C23.010056,40 20.9402714,41.4165028 20.2886667,43.0920579 Z" id="Rectangle-37" stroke="#3C3C3C" stroke-width="2"></path>
                <g id="Rectangle-31">
                    <use fill="#FFFFFF" fill-rule="evenodd" xlink:href="#path-1"></use>
                    <path stroke="#3C3C3C" stroke-width="2" d="M1,7.99344981 L1,45.0065502 C1,46.6572214 2.3428753,48 3.99642766,48 L58.0035723,48 C59.6589816,48 61,46.659845 61,45.0065502 L61,7.99344981 C61,6.34277856 59.6571247,5 58.0035723,5 L3.99642766,5 C2.34101842,5 1,6.340155 1,7.99344981 Z"></path>
                </g>
                <rect id="Rectangle-6" fill="#DCDCDC" x="2" y="6" width="59" height="4"></rect>
                <rect id="Rectangle-6" fill="#DCDCDC" x="6" y="33" width="49" height="4"></rect>
                <path d="M1,7.99344981 L1,45.0065502 C1,46.6572214 2.3428753,48 3.99642766,48 L58.0035723,48 C59.6589816,48 61,46.659845 61,45.0065502 L61,7.99344981 C61,6.34277856 59.6571247,5 58.0035723,5 L3.99642766,5 C2.34101842,5 1,6.340155 1,7.99344981 Z" id="Rectangle-31" stroke="#3C3C3C" stroke-width="2"></path>
                <path d="M7,11 L7,38 L56,38 L56,11 L7,11 Z" id="Rectangle-5" stroke="#3C3C3C" stroke-width="2"></path>
                <circle id="Oval-5" stroke="#3C3C3C" stroke-width="2" cx="31" cy="43" r="2"></circle>
                <g id="icn-doc-home-copy-3" transform="translate(34.000000, 0.000000)">
                    <polygon id="Path-2" fill="#FFFFFF" points="15.5 26 16.5 29.5 19.5 34 23 36.5 26.5 38.5 30 37.5 34 34.5 36.5 31 38.5 26"></polygon>
                    <path d="M37.9527895,27.6192923 C40.3130097,24.6873919 41.75,20.8031698 41.75,16.5426473 C41.75,14.1588918 41.3001668,10.105095 40.4904827,8.05781943 C38.1978452,2.260916 33.0200991,0.00514730556 27,0.00514730556 C20.9742839,0.00514730556 15.7924936,2.26846511 13.5031076,8.07405001 C12.6974595,10.1170686 12.25,14.1651894 12.25,16.5426473 C12.25,20.8481201 13.7174719,24.7693102 16.122222,27.7117719" id="Oval-2" stroke="#3C3C3C" stroke-width="2" fill="#FFFFFF"></path>
                    <path d="M27.183265,49.3769701 L36.117702,39.00875 L44.8213178,43.1503856 C49.2227247,44.2729788 52.7353071,48.7998316 52.7353071,53.2691002 L52.7353071,62.900062 L1.15230133,62.900062 L1.15230133,53.2691002 C1.15230133,48.795469 4.66207827,44.2775621 9.00198121,43.1754382 L17.3721805,39.7085353 L27.183265,49.3769701 Z" id="Rectangle-3" fill="#FF3C41"></path>
                    <path d="M36.0881135,38.6720191 L18.0820911,38.5965701 L8.7308896,43.2915717 C3.19543505,46.2518863 1.05891611,48.901388 1.05891611,52.9543758 L1.05891611,62.0156246 L52.9465246,62.015625 L52.9465246,52.9543754 C52.9465246,49.1967268 50.06622,45.8358553 45.2290752,43.2766692 L36.0881135,38.6720191 Z" id="Rectangle-3" stroke="#3C3C3C" stroke-width="2"></path>
                    <path d="M18.8585114,40.4167123 C20.7477366,43.2474303 26.9999995,48.0159006 26.9999995,48.0159006 C26.9999995,48.0159006 33.8857322,43.254759 35.7744802,40.4167123 L35.4579843,33.7421875 C35.4579843,33.7421875 30.2892157,38.2485462 26.9999995,38.2485462 C23.7107834,38.2485462 18.5420156,33.7421875 18.5420156,33.7421875 L18.8585114,40.4167123 Z" id="Oval" fill="#FFFFFF"></path>
                    <path d="M18.5420156,36.5027797 C20.4312408,39.3334977 23.6523948,41.7883543 26.9999997,41.7883543 C30.3531317,41.7883543 33.5692364,39.3408264 35.4579844,36.5027797 L35.4579843,33.7421875 C35.4579843,33.7421875 30.2892157,38.2485462 26.9999995,38.2485462 C23.7107834,38.2485462 18.5420156,33.7421875 18.5420156,33.7421875 L18.5420156,36.5027797 Z" id="Oval" fill="#D8D8D8"></path>
                    <path d="M38.0000004,21 C38.0000004,17.0799166 36.3476727,16.8057103 33.7765641,16.1935444 C31.9088254,15.7488468 29.5562385,16.5222341 26.9999994,16.5222341 C24.7715065,16.5222341 22.6977915,15.7611687 20.9651653,16.0458041 C17.9744518,16.5371179 16.0000041,16.7148036 16.0000041,21 C16.0000041,21 14.5,18.935892 16,14.294179 C17.5,9.65246593 26.999999,12.2206983 26.9999995,12.6426722 C26.9999999,13.0646461 32.4577179,10.689826 34.9577126,12.3777217 C37.4577073,14.0656173 38.9999996,15.1381266 39,16.8260224 C39.0000004,18.5139183 38.0000004,21 38.0000004,21 Z" id="Oval" fill="#DCDCDC"></path>
                    <path d="M38.4672572,19.3371903 C38.2176187,15.2345987 36.5576476,12.8322298 34.0845898,12.1454335 C32.1319538,11.6031643 29.6724312,12.5462414 26.9999993,12.5462414 C24.6702113,12.5462414 22.5022366,11.6181897 20.6908547,11.9652773 C17.8253842,12.5143439 15.8522826,14.7905819 15.5426326,19.189288 M15.6514003,25.2593012 C15.8229672,27.0040707 16.188885,28.6793632 16.9692334,30.1948876 C19.0709034,34.2765672 23.2759542,38.1837316 26.9999997,38.1837316 C30.7301939,38.1837316 34.940027,34.2669078 37.0411662,30.1746607 C37.8591368,28.5815544 38.2185333,26.8126767 38.3764079,24.9726132" id="Oval" stroke="#3C3C3C" stroke-width="2"></path>
                    <path d="M29,22 C28.5760253,21.4003037 27.8111674,21 26.9380539,21 C26.1443059,21 25.4400271,21.3308366 25,21.8415575" id="Oval-4" stroke="#3C3C3C" stroke-width="2" transform="translate(27.000000, 21.500000) rotate(-360.000000) translate(-27.000000, -21.500000) "></path>
                    <rect id="Rectangle" stroke="#3C3C3C" stroke-width="2" x="15" y="19" width="10" height="6" rx="2"></rect>
                    <rect id="Rectangle" stroke="#3C3C3C" stroke-width="2" x="29" y="19" width="10" height="6" rx="2"></rect>
                    <g id="Group-2" transform="translate(41.000000, 51.000000)" stroke="#3C3C3C" stroke-width="2" stroke-linecap="square">
                        <path d="M0,3 L4,3" id="Line"></path>
                        <path d="M2,5 L2,1" id="Line"></path>
                    </g>
                    <path d="M36,32 L36,40.0461668" id="Path" stroke="#3C3C3C" stroke-width="2"></path>
                    <path d="M18,40.0461668 L18,32" id="Path" stroke="#3C3C3C" stroke-width="2"></path>
                    <path d="M37.2844228,39.4866239 L31.5499769,38.5512758 L31.2322356,52.5470369 L37.2844226,52.5470369 L37.2844228,39.4866239 Z" id="Rectangle-4" stroke="#3C3C3C" stroke-width="2" transform="translate(34.246849, 45.463143) scale(-1, 1) rotate(-45.000000) translate(-34.246849, -45.463143) "></path>
                    <path d="M22.7538122,39.4897709 L16.9909755,38.5624341 L16.5287669,52.5903612 L22.5833495,52.5903612 L22.7538122,39.4897709 Z" id="Rectangle-4" stroke="#3C3C3C" stroke-width="2" transform="translate(19.630117, 45.492559) rotate(-45.000000) translate(-19.630117, -45.492559) "></path>
                </g>
            </g>
        </g>
    </g>
</svg>