<?xml version="1.0" encoding="UTF-8"?>
<svg width="88px" height="64px" viewBox="0 0 88 64" version="1.1" xmlns="http://www.w3.org/2000/svg" xmlns:xlink="http://www.w3.org/1999/xlink">
    <!-- Generator: Sketch 44 (41411) - http://www.bohemiancoding.com/sketch -->
    <title>call-us</title>
    <desc>Created with Sketch.</desc>
    <defs>
        <rect id="path-1" x="23" y="33" width="8" height="5" rx="2.5"></rect>
    </defs>
    <g id="Icons" stroke="none" stroke-width="1" fill="none" fill-rule="evenodd">
        <g id="call-us">
            <g transform="translate(17.000000, 1.000000)">
                <path d="M9.29357795,17.0000002 C8.29357795,17.0000002 14.6011925,17.0011707 15.8303089,17.0000002 C16.3276569,16.9995266 16.6876271,17.8013502 16.9559973,18.7744568 C17.8378983,22.1588382 17.5064018,25.255426 16.6370988,28.8574485 C16.4925575,29.4551848 16.0808545,29.9972861 15.4102102,29.9972861 C13.7592881,29.9972861 13.2727731,30.0033924 11.621851,29.9972861" id="Path" stroke="#3C3C3C" stroke-width="2" fill="#FFFFFF" transform="translate(13.330984, 23.500000) scale(-1, 1) translate(-13.330984, -23.500000) "></path>
                <path d="M36.293578,17.0000002 C35.293578,17.0000002 41.6011925,17.0011707 42.8303089,17.0000002 C43.3276569,16.9995266 43.6876271,17.8013502 43.9559973,18.7744568 C44.8378983,22.1588382 44.5064018,25.255426 43.6370988,28.8574485 C43.4925575,29.4551848 43.0808545,29.9972861 42.4102102,29.9972861 C40.7592881,29.9972861 40.2727731,30.0033924 38.621851,29.9972861" id="Path" stroke="#3C3C3C" stroke-width="2" fill="#FFFFFF"></path>
                <g id="icn-doc-home" transform="translate(0.000000, 14.000000)">
                    <path d="M27.183265,38.3769701 L36.117702,28.00875 L44.8213178,32.1503856 C49.2227247,33.2729788 52.7353071,37.7998316 52.7353071,42.2691002 L52.7353071,48.900062 L1.15230133,48.900062 L1.15230133,42.2691002 C1.15230133,37.795469 4.66207827,33.2775621 9.00198121,32.1754382 L17.3721805,28.7085353 L27.183265,38.3769701 Z" id="Rectangle-3" fill="#FF3C41"></path>
                    <polygon id="Path-2" fill="#FFFFFF" points="15.5 15 16.5 18.5 19.5 23 23 25.5 26.5 27.5 30 26.5 34 23.5 36.5 20 38.5 15"></polygon>
                    <path d="M36.0881135,27.6720191 L18.0820911,27.5965701 L8.7308896,32.2915717 C3.19543488,35.2518864 1.05891611,37.9013878 1.05891611,41.9543754 L1.05891611,48.015625 L52.9465246,48.015625 L52.9465246,41.9543754 C52.9465246,38.1967268 50.06622,34.8358553 45.2290752,32.2766692 L36.0881135,27.6720191 Z" id="Rectangle-3" stroke="#3C3C3C" stroke-width="2"></path>
                    <path d="M18.5420156,29.1730986 C20.4312408,32.0038166 26.9999995,36.6023545 26.9999995,36.6023545 C26.9999995,36.6023545 33.5692363,32.0111453 35.4579843,29.1730986 L35.4579843,22.7421875 C35.4579843,22.7421875 30.2892157,27.2485462 26.9999995,27.2485462 C23.7107834,27.2485462 18.5420156,22.7421875 18.5420156,22.7421875 L18.5420156,29.1730986 Z" id="Oval" fill="#FFFFFF"></path>
                    <path d="M18.5420156,25.5027797 C20.4312408,28.3334977 23.6523948,30.7883543 26.9999997,30.7883543 C30.3531317,30.7883543 33.5692364,28.3408264 35.4579844,25.5027797 L35.4579843,22.7421875 C35.4579843,22.7421875 30.2892157,27.2485462 26.9999995,27.2485462 C23.7107834,27.2485462 18.5420156,22.7421875 18.5420156,22.7421875 L18.5420156,25.5027797 Z" id="Oval" fill="#D8D8D8"></path>
                    <path d="M38.0000004,13.9044104 C38.0000004,9.33205181 36.3476727,6.6794331 33.7765641,5.96540697 C31.9088254,5.44671467 29.5562385,6.3487884 26.9999994,6.3487884 C24.7715065,6.3487884 22.6977915,5.46108682 20.9651653,5.79308366 C17.9744518,6.36614866 16.0000041,8.90618654 16.0000041,13.9044104 C16.0000041,13.9044104 14.5,9.1640625 16,3.75 C17.5,-1.6640625 26.999999,1.33150627 26.9999995,1.82369377 C26.9999999,2.31588127 32.4577179,-0.454092766 34.9577126,1.51465725 C37.4577073,3.48340727 38.9999996,4.73437475 39,6.703125 C39.0000004,8.67187525 38.0000004,13.9044104 38.0000004,13.9044104 Z" id="Oval" fill="#DCDCDC"></path>
                    <path d="M16.9692334,19.1948876 C19.0709034,23.2765672 23.2759542,27.1837316 26.9999997,27.1837316 C30.7301939,27.1837316 34.940027,23.2669078 37.0411662,19.1746607 C38.5175637,16.2991808 38.4999952,12.8510639 38.4999952,9.44530076 C38.4999952,4.66510766 36.7725669,1.89191539 34.0845898,1.14543353 C32.1319538,0.603164296 29.6724312,1.54624138 26.9999993,1.54624138 C24.6702113,1.54624138 22.5022366,0.618189727 20.6908547,0.965277331 C17.5641996,1.56439075 15.5000043,4.21988489 15.5000043,9.44530076 C15.5000043,12.8590533 15.4865546,16.3153586 16.9692334,19.1948876 Z" id="Oval" stroke="#3C3C3C" stroke-width="2"></path>
                    <path d="M36,21 L36,29.0461668 M18,29.0461668 L18,21" id="Rectangle-2" stroke="#3C3C3C" stroke-width="2"></path>
                    <path d="M37.2844228,28.4866239 L31.5499769,27.5512758 L31.2322356,41.5470369 L37.2844226,41.5470369 L37.2844228,28.4866239 Z" id="Rectangle-4" stroke="#3C3C3C" stroke-width="2" transform="translate(34.246849, 34.463143) scale(-1, 1) rotate(-45.000000) translate(-34.246849, -34.463143) "></path>
                    <path d="M22.7538122,28.4897709 L16.9909755,27.5624341 L16.5287669,41.5903612 L22.5833495,41.5903612 L22.7538122,28.4897709 Z" id="Rectangle-4" stroke="#3C3C3C" stroke-width="2" transform="translate(19.630117, 34.492559) rotate(-45.000000) translate(-19.630117, -34.492559) "></path>
                </g>
                <path d="M42.4088329,17.9834083 L42.4088329,15.547336 C42.4088329,7.03727262 35.5100634,0.138503164 27,0.138503164 C18.4899366,0.138503164 11.5911671,7.03727262 11.5911671,15.547336 L11.5911671,17.9834083" id="Oval-3" stroke="#3C3C3C" stroke-width="2"></path>
                <path d="M42,29.3052247 L42,32.8024261 C41.6845862,35.5541094 38.3927623,35 35.2324302,35 L29,35" id="Rectangle-7" stroke="#3C3C3C" stroke-width="2"></path>
                <g id="Rectangle">
                    <use fill="#FFFFFF" fill-rule="evenodd" xlink:href="#path-1"></use>
                    <rect stroke="#3C3C3C" stroke-width="2" x="24" y="34" width="6" height="3" rx="1.5"></rect>
                </g>
            </g>
        </g>
    </g>
</svg>