<?xml version="1.0" encoding="UTF-8"?>
<svg width="88px" height="64px" viewBox="0 0 88 64" version="1.1" xmlns="http://www.w3.org/2000/svg" xmlns:xlink="http://www.w3.org/1999/xlink">
    <!-- Generator: Sketch 44 (41411) - http://www.bohemiancoding.com/sketch -->
    <title>superdocs</title>
    <desc>Created with Sketch.</desc>
    <defs></defs>
    <g id="Icons" stroke="none" stroke-width="1" fill="none" fill-rule="evenodd">
        <g id="superdocs">
            <g id="Group-3" transform="translate(37.000000, 7.000000)">
                <path d="M23.3914413,38.3329032 C23.3914413,38.3329032 27.390929,38.8429242 30,38.3329032 C32.609071,37.8228822 36.7634496,37.4030231 36.7634496,37.4030231 L44.3114807,42.8483005 C46.4640398,43.4097954 49.1058067,45.7723764 49.78655,48.3403417 C50.4672933,50.908307 49.1958267,52.8598277 49.1958267,55.1676736 L49.1958267,55.8090826 L0.905894858,55.8090826 L0.905894858,55.1676736 C0.905894858,50.6199692 4.39449928,42.9775827 8.70822203,41.8572102 L17.0279286,38.3329032 L23.3914413,38.3329032 Z" id="Rectangle-3" fill="#FF3C41"></path>
                <path d="M38.5021415,24.9569824 C40.5874592,22.307697 41.8570785,18.7978873 41.8570785,14.9480498 C41.8570785,12.794072 41.4596388,9.13103328 40.7442612,7.28110103 C38.7186547,2.04297924 34.1439778,0.00465114069 28.8250593,0.00465114069 C23.5011781,0.00465114069 18.9229279,2.04980067 16.9001942,7.2957671 C16.1883826,9.14185273 15.7930402,12.7997625 15.7930402,14.9480498 C15.7930402,18.8385046 17.0895908,22.381719 19.2142518,25.0405476" id="Oval-2" stroke="#3C3C3C" stroke-width="2" fill="#FFFFFF"></path>
                <path d="M38.5438536,22.5037965 C38.5438536,18.3721818 37.0839779,15.9752573 34.8123348,15.3300584 C33.1621377,14.8613644 31.0835643,15.6764845 28.8250588,15.6764845 C26.8561257,15.6764845 25.0239431,14.8743512 23.4931216,15.1743458 C20.8507463,15.6921713 19.106269,17.987367 19.106269,22.5037965 C19.106269,22.5037965 17.7809753,18.2203855 19.1062654,13.3282014 C20.4315554,8.43601731 28.8250585,11.1428338 28.8250589,11.5875778 C28.8250592,12.0323219 33.6470989,9.52935428 35.855911,11.3083303 C38.0647232,13.0873064 39.4273796,14.2176892 39.42738,15.9966655 C39.4273804,17.7756417 38.5438536,22.5037965 38.5438536,22.5037965 Z" id="Oval" fill="#DCDCDC"></path>
                <path d="M35.74896,37.2623773 L17.9253733,37.1859954 L8.63552554,41.9561921 C3.13171957,44.9664766 1.00474918,47.6640838 1.00474918,51.7980644 L1.00474918,55.9431168 L49.9860179,55.9431168 L49.9860179,51.8444444 C49.9860179,47.5848205 48.4318147,45.2106011 44.1608729,42.8947971 L35.74896,37.2623773 Z" id="Rectangle-3" stroke="#3C3C3C" stroke-width="2"></path>
                <path d="M20.8585114,35.4167123 C22.7477366,38.2474303 28.9999995,39.5225639 28.9999995,39.5225639 C28.9999995,39.5225639 35.8857322,38.254759 37.7744802,35.4167123 L37.4579843,28.7421875 C37.4579843,28.7421875 32.2892157,33.2485462 28.9999995,33.2485462 C25.7107834,33.2485462 20.5420156,28.7421875 20.5420156,28.7421875 L20.8585114,35.4167123 Z" id="Oval" fill="#FFFFFF"></path>
                <path d="M19.962609,27.284308 C21.8194905,30.9725418 25.5347653,35 28.8250591,35 C32.1207853,35 35.8402854,30.9638135 37.6966979,27.2660309 C39.0011346,24.6677275 38.9856123,21.5519853 38.9856123,18.4745143 C38.9856123,14.155099 37.4593833,11.6492234 35.0844837,10.9746972 C33.3592776,10.484699 31.1862237,11.33687 28.8250587,11.33687 C26.7666287,11.33687 24.8511651,10.4982761 23.2507608,10.8119069 C20.4882775,11.3532699 18.6645058,13.7527926 18.6645058,18.4745143 C18.6645058,21.5592046 18.6526227,24.6823458 19.962609,27.284308 Z" id="Oval" stroke="#3C3C3C" stroke-width="2"></path>
                <path d="M37,38 L37,28.3172552" id="Path" stroke="#3C3C3C" stroke-width="2"></path>
                <path d="M21,39 L21,29" id="Path" stroke="#3C3C3C" stroke-width="2"></path>
                <path d="M19.9428454,36.2948232 C20.0738801,36.9037556 20.5675277,37.6755721 21.6045078,38.37228 C23.1430388,39.405961 25.5398819,40 28.972083,40 C32.38579,40 34.7283834,39.4987173 36.2020377,38.6199578 C37.232967,38.005201 37.7180194,37.2900255 37.8238708,36.6982054 L37.9999342,35.7138266 L36.0311765,35.3616998 L35.8551131,36.3460786 C35.8501687,36.373723 35.7050134,36.5877443 35.1777066,36.9021842 C34.0543009,37.5720859 32.0545736,38 28.972083,38 C25.9080864,38 23.8935311,37.5007081 22.7198725,36.7121711 C22.3589239,36.4696633 22.1213903,36.227063 21.9769275,36.0011958 C21.9125433,35.9005314 21.8934131,35.8523535 21.8980881,35.8740789 L21.687716,34.8964576 L19.7324732,35.3172018 L19.9428454,36.2948232 Z" id="Line" fill="#3C3C3C" fill-rule="nonzero"></path>
            </g>
            <g id="Group-4" transform="translate(-1.000000, 1.000000)">
                <g id="Group-2" transform="translate(0.155556, 7.000000)">
                    <g id="Group-3" transform="translate(25.500000, 28.500000) scale(-1, 1) translate(-25.500000, -28.500000) ">
                        <path d="M37.8750171,24.5504821 C39.926369,21.9443483 41.1753086,18.4917065 41.1753086,14.7045754 C41.1753086,12.5856816 40.7843425,8.98230663 40.080617,7.16250616 C38.0880037,2.00970311 33.5878393,0.00457538272 28.3555556,0.00457538272 C23.11839,0.00457538272 18.6147105,2.01641343 16.6249231,7.17693334 C15.9247056,8.99294986 15.5358025,12.5912795 15.5358025,14.7045754 C15.5358025,18.5316623 16.8112348,22.0171646 18.9012893,24.6326861" id="Oval-2" stroke="#3C3C3C" stroke-width="2" fill="#FFFFFF"></path>
                        <path d="M28.1555556,38.5472275 L35.0317807,36.9169947 L43.5897335,42.1503856 C45.7072316,42.7027348 48.3059693,45.0268341 48.9756246,47.5529722 C49.64528,50.0791104 48.3945231,51.9988446 48.3945231,54.2691002 L48.3945231,54.900062 L0.891139605,54.900062 L0.891139605,54.2691002 C0.891139605,49.795469 4.3229215,42.2775621 8.56638215,41.1754382 L16.750577,37.7085353 L28.1555556,38.5472275 Z" id="Rectangle-3" fill="#FF3C41"></path>
                        <path d="M37.9160498,22.1372537 C37.9160498,18.0729349 36.4799526,15.7150516 34.24531,15.0803618 C32.6219915,14.6193019 30.577274,15.4211452 28.355555,15.4211452 C26.418692,15.4211452 24.6163521,14.6320772 23.1104647,14.9271855 C20.5111285,15.4365766 18.7950653,17.694388 18.7950653,22.1372537 C18.7950653,22.1372537 17.4913581,17.9236111 18.7950617,13.1111111 C20.0987654,8.29861111 28.3555547,10.9613389 28.3555551,11.3988389 C28.3555555,11.8363389 33.0990536,9.37413976 35.2718885,11.1241398 C37.4447234,12.8741398 38.7851848,13.9861109 38.7851852,15.7361111 C38.7851856,17.4861113 37.9160498,22.1372537 37.9160498,22.1372537 Z" id="Oval" fill="#DCDCDC"></path>
                        <path d="M35.1616983,36.671713 L17.6373084,36.5966133 L8.50268573,41.2870982 C3.09323359,44.2457762 1.00467183,46.8946703 1.00467183,50.9543754 L1.00467183,55.015625 L49.1555556,55.015625 L49.1555556,51 C49.1555556,46.8160191 47.6301587,44.4858046 43.4325166,42.2096591 L35.1616983,36.671713 Z" id="Rectangle-3" stroke="#3C3C3C" stroke-width="2"></path>
                        <path d="M19.6975711,34.4167123 C21.5867963,37.2474303 27.8390593,38.5225639 27.8390593,38.5225639 C27.8390593,38.5225639 34.724792,37.254759 36.61354,34.4167123 L36.297044,27.7421875 C36.297044,27.7421875 31.1282754,32.2485462 27.8390593,32.2485462 C24.5498431,32.2485462 19.3810753,27.7421875 19.3810753,27.7421875 L19.6975711,34.4167123 Z" id="Oval" fill="#FFFFFF"></path>
                        <path d="M19.6374572,26.8399001 C21.4640938,30.4680597 25.118854,34 28.3555553,34 C31.5976006,34 35.2565173,30.4594736 37.0826926,26.8219207 C38.3658825,24.2659385 38.3506131,21.2009457 38.3506131,18.1736007 C38.3506131,13.9245401 36.8492434,11.4594803 34.5130262,10.7959409 C32.8159204,10.3139238 30.6782612,11.1522146 28.355555,11.1522146 C26.3306528,11.1522146 24.4463883,10.3272798 22.8720515,10.6358021 C20.1545636,11.1683473 18.3604975,13.5287866 18.3604975,18.1736007 C18.3604975,21.2080474 18.348808,24.2803187 19.6374572,26.8399001 Z" id="Oval" stroke="#3C3C3C" stroke-width="2"></path>
                        <path d="M20.1555556,38 L20.1555556,28" id="Path" stroke="#3C3C3C" stroke-width="2"></path>
                        <path d="M36.1555556,38 L36.1555556,28.388662" id="Rectangle-2" stroke="#3C3C3C" stroke-width="2"></path>
                        <path d="M19.1251149,35.2047017 C19.2539994,35.8209901 19.7430605,36.6077842 20.7770002,37.3225709 C22.3175628,38.3875979 24.7189405,39 28.1555556,39 C31.5740216,39 33.9216852,38.4805105 35.3982151,37.5700276 C36.4258531,36.9363481 36.904943,36.2058889 37.008334,35.6081228 L37.1787659,34.6227534 L35.208027,34.2818896 L35.0375951,35.2672591 C35.0301904,35.3100703 34.8790724,35.540477 34.3484744,35.8676633 C33.2279442,36.5586236 31.2332872,37 28.1555556,37 C25.095973,37 23.0859522,36.4874021 21.9143252,35.6774291 C21.55257,35.4273392 21.3135167,35.1761147 21.1672711,34.940837 C21.1003532,34.8331806 21.079249,34.778492 21.0827637,34.7952983 L20.8780621,33.8164739 L18.9204133,34.2258773 L19.1251149,35.2047017 Z" id="Line" fill="#3C3C3C" fill-rule="nonzero"></path>
                    </g>
                </g>
                <g id="Group-2" transform="translate(17.600000, 0.000000)">
                    <path d="M38.1093942,27.6192923 C40.4171651,24.6873919 41.8222222,20.8031698 41.8222222,16.5426473 C41.8222222,14.1588918 41.3823853,10.105095 40.5906942,8.05781943 C38.3490042,2.260916 33.2863192,0.00514730556 27.4,0.00514730556 C21.5081887,0.00514730556 16.4415493,2.26846511 14.2030385,8.07405001 C13.4152938,10.1170686 12.9777778,14.1651894 12.9777778,16.5426473 C12.9777778,20.8481201 14.4126392,24.7693102 16.7639504,27.7117719" id="Oval-2" stroke="#3C3C3C" stroke-width="2" fill="#FFFFFF"></path>
                    <path d="M17.5921393,30.1948876 C19.6471055,34.2765672 23.7587108,38 27.3999997,38 C31.0473007,38 35.163582,34.2669078 37.2180291,30.1746607 C38.6616178,27.2991808 38.6444397,23.8510639 38.6444397,20.4453008 C38.6444397,15.6651077 36.9553988,12.8919154 34.3271544,12.1454335 C32.4179104,11.6031643 30.0130438,12.5462414 27.3999994,12.5462414 C25.1219844,12.5462414 22.9215937,11.7983459 21.1504647,12.1454335 C18.0932909,12.7445469 16.1555597,15.2198849 16.1555597,20.4453008 C16.1555597,23.8590533 16.142409,27.3153586 17.5921393,30.1948876 Z" id="Oval" stroke="#3C3C3C" stroke-width="2" fill="#FFFFFF"></path>
                    <path d="M36.4723994,39.9441171 C36.4723994,39.9441171 42.0629303,43.5743672 46.3405867,46.6189096 C50.6182432,49.6634519 52.5634114,52.2850495 52.5634114,54.2691002 L52.5634114,62.900062 L1.0818112,62.900062 L1.0818112,54.2691002 C1.0818112,49.795469 18.2130179,39.9441171 18.2130179,39.9441171 C18.2130179,39.9441171 21.6214155,41.2489607 23.296128,41.9022483 C24.9708404,42.5555359 27.4,42.289858 27.4,42.289858 C27.4,42.289858 31.6940541,41.9195317 33.4455913,41.2053981 C35.1971284,40.4912645 36.4723994,39.9441171 36.4723994,39.9441171 Z" id="Rectangle-3" fill="#FF3C41"></path>
                    <path d="M38.155556,24.9044104 C38.155556,20.3320518 36.5399467,17.6794331 34.0259738,16.965407 C32.1997404,16.4467147 29.8994332,17.3487884 27.3999994,17.3487884 C25.2210286,17.3487884 23.1933961,16.4610868 21.4992728,16.7930837 C18.5750195,17.3661487 16.6444484,19.9061865 16.6444484,24.9044104 C16.6444484,24.9044104 15.1777778,20.1640625 16.6444444,14.75 C18.1111111,9.3359375 27.3999991,12.3315063 27.3999995,12.8236938 C27.3999999,13.3158813 32.7364353,10.5459072 35.1808746,12.5146573 C37.6253138,14.4834073 39.1333329,15.7343747 39.1333333,17.703125 C39.1333338,19.6718753 38.155556,24.9044104 38.155556,24.9044104 Z" id="Oval" fill="#DCDCDC"></path>
                    <path d="M36.2639498,39.6719243 L18.6959998,39.5966379 C18.5564582,39.670891 18.3740725,39.7689115 18.1527954,39.8892906 C17.5426232,40.2212364 16.8620918,40.6013444 16.1289209,41.0232788 C14.0348225,42.2284169 11.9411592,43.5255549 9.99075215,44.8628454 C7.69043552,46.4400503 5.7469109,47.9672924 4.27914769,49.3955758 C2.39315815,51.2308362 1.4,52.8109709 1.4,53.9543754 L1.4,62 L53.4,62 L53.4,54 C53.4,52.8340956 52.2558194,51.1337053 50.1143313,49.1380121 C48.7157639,47.8346608 46.9442424,46.4472261 44.8881975,45.0133483 C42.9553124,43.6653617 40.8805897,42.3511072 38.8054476,41.1250374 C38.0789158,40.6957759 37.4045337,40.308382 36.79985,39.9695228 C36.5818887,39.8473793 36.4019746,39.7476946 36.2639498,39.6719243 Z" id="Rectangle-3" stroke="#3C3C3C" stroke-width="2"></path>
                    <path d="M19.2585114,38.4167123 C21.1477366,41.2474303 27.3999995,42.5225639 27.3999995,42.5225639 C27.3999995,42.5225639 34.2857322,41.254759 36.1744802,38.4167123 L35.8579843,31.7421875 C35.8579843,31.7421875 30.6892157,36.2485462 27.3999995,36.2485462 C24.1107834,36.2485462 18.9420156,31.7421875 18.9420156,31.7421875 L19.2585114,38.4167123 Z" id="Oval" fill="#FFFFFF"></path>
                    <path d="M18.4,40 L18.4,31.7468972" id="Rectangle-2" stroke="#3C3C3C" stroke-width="2"></path>
                    <path d="M36.4,40 L36.4,31.7131621" id="Rectangle-2" stroke="#3C3C3C" stroke-width="2"></path>
                    <path d="M17.5921393,30.1948876 C19.6471055,34.2765672 23.7587108,38 27.3999997,38 C31.0473007,38 35.163582,34.2669078 37.2180291,30.1746607 C38.6616178,27.2991808 38.6444397,23.8510639 38.6444397,20.4453008 C38.6444397,15.6651077 36.9553988,12.8919154 34.3271544,12.1454335 C32.4179104,11.6031643 30.0130438,12.5462414 27.3999994,12.5462414 C25.1219844,12.5462414 22.9215937,11.7983459 21.1504647,12.1454335 C18.0932909,12.7445469 16.1555597,15.2198849 16.1555597,20.4453008 C16.1555597,23.8590533 16.142409,27.3153586 17.5921393,30.1948876 Z" id="Oval" stroke="#3C3C3C" stroke-width="2"></path>
                    <path d="M17.7352122,39.386991 C17.9604954,39.9587101 18.5593859,40.6918043 19.682284,41.3671441 C21.3983674,42.3992408 23.9215899,43 27.4,43 C30.8484633,43 33.3313109,42.5266017 35.0119469,41.7118474 C36.1344298,41.1676797 36.7470804,40.5563078 36.9856112,40.0506901 L37.4122766,39.1462806 L35.6034575,38.2929498 L35.1767921,39.1973593 C35.1905444,39.1682084 35.1663538,39.2028135 35.0815645,39.2874258 C34.8828816,39.4856941 34.5773167,39.6999218 34.1394861,39.9121773 C32.7569675,40.5824076 30.5668067,41 27.4,41 C24.2631401,41 22.0933999,40.4834022 20.7130717,39.6532372 C20.2697628,39.3866198 19.9540233,39.1133109 19.7416008,38.8532873 C19.6376945,38.726097 19.59569,38.6530816 19.5959619,38.6537716 L19.2293521,37.7233968 L17.3686025,38.4566162 L17.7352122,39.386991 Z" id="Line" fill="#3C3C3C" fill-rule="nonzero"></path>
                    <g id="Group-5" transform="translate(13.711111, 44.000000)">
                        <g id="Group-6">
                            <polygon id="Path-3" fill="#FFFFFF" points="3.98262613 1.90795266 0.977777778 5.94030275 10.1154931 17.1904445 16.3620656 17.7858291 26.5091472 5.94030275 22.1459021 1.90795266"></polygon>
                            <path d="M19.1304952,5.66346811 L21.2766889,4.96400272 C21.2766889,4.96400272 22.8627194,6.14499248 22.8550662,5.66346811 C22.8474129,5.18194374 22.5461352,1.21928966 22.5461352,1.21928966 C22.5461352,1.21928966 18.0628412,1.820638 16.4353427,1.7684557 C14.8078442,1.71627341 10.0766903,1.21928966 10.0766903,1.21928966 C10.0766903,1.21928966 7.32384195,0.697346033 6.34564826,1.21928966 C5.36745457,1.74123328 3.9534397,5.02058744 3.9534397,5.66346811 C3.9534397,6.85657468 4.56393261,9.0605878 4.6991328,9.6309636 C4.81495915,10.119606 6.06381212,11.070087 7.12640664,11.3159881 C8.18900116,11.5618893 10.556629,11.0596426 10.9952013,10.9879902 C15.453072,10.259679 19.1304952,12.1413519 19.1304952,12.1413519 C19.1304952,12.1413519 19.3939407,14.4487606 18.3485989,14.4487606 C17.6994978,14.4487606 11.0628629,12.9944387 9.73984911,12.9180824 C8.41683533,12.8417261 7.86526119,15.3415682 7.83484067,15.5442521 C7.75458681,16.0789626 9.07155398,17.4421934 10.0766903,17.4010742 C10.5070282,17.3834695 14.9005521,18.0426375 14.9005521,18.0426375 L18.3485989,15.1808466 L21.2766889,12.1413519 C21.2766889,12.1413519 23.8345831,10.2981422 22.8550662,9.52355815 C21.8755492,8.7489741 17.3450939,7.35605944 16.4353427,7.39411327 C15.4720188,7.43440799 12.1792699,7.65281859 10.9952013,7.39411327 C9.81113265,7.13540796 7.54722164,5.65737002 7.83484067,4.96400272 C8.11900369,4.27896685 9.27709671,3.05645127 10.9952013,2.55906491 C12.7133059,2.06167856 15.7878254,3.54990181 15.7878254,3.54990181 L19.1304952,5.66346811 Z" id="Path-17" fill="#FF3C41"></path>
                            <path d="M17.6444444,18 L27.4,6 L22.4888889,1 C22.4888889,1 18.0944444,2.06905959 13.7,2.06905959 C9.30555556,2.06905959 4.91111111,1 4.91111111,1 L1.13686838e-13,6 L10.7555556,18" id="Path-3" stroke="#3C3C3C" stroke-width="2" transform="translate(13.700000, 9.500000) scale(-1, 1) translate(-13.700000, -9.500000) "></path>
                            <path d="M9.08888889,17 C9.08888889,17 12.5658085,18.5391125 17.3111111,17" id="Path-2" stroke="#3C3C3C" stroke-width="2"></path>
                        </g>
                    </g>
                </g>
            </g>
            <path d="M52.8,47 L52.8,51 L48.2563932,51 C48.2563932,51 48.0324853,47 44,47 C39.9675147,47 38.1333333,48.0330216 38.1333333,50 C38.1333333,51.9669784 40.1623529,52 44.9777778,52 C49.7932027,52 53.2275208,55.3054429 53.2275208,55.3054429" id="Path-13" stroke="#3C3C3C" stroke-width="2"></path>
            <path d="M36.5727592,45.9735846 C36.5727592,45.9735846 34.0854129,48.6789929 34.0854129,51.3822924 C34.0854129,54.0855918 34.6242436,56 34.6242436,56 C34.6242436,56 42.4647876,55.5878148 45.1744334,56 C47.8840792,56.4121852 50.2328647,57.4066685 50.2328647,58.3743483 C50.2328647,59.3420281 44,59 44,59 C44,59 42.598812,57.7486966 40.2761516,58.3743483 C37.9534911,59 39.2188889,61.760393 39.2188889,61.760393" id="Path-15" stroke="#3C3C3C" stroke-width="2"></path>
        </g>
    </g>
</svg>