<?xml version="1.0" encoding="UTF-8"?>
<svg width="96px" height="32px" viewBox="0 0 96 32" version="1.1" xmlns="http://www.w3.org/2000/svg" xmlns:xlink="http://www.w3.org/1999/xlink">
    <!-- Generator: Sketch 42 (36781) - http://www.bohemiancoding.com/sketch -->
    <title>Google Play Badge</title>
    <desc>Created with Sketch.</desc>
    <defs>
        <linearGradient x1="50%" y1="0%" x2="50%" y2="38.9125982%" id="linearGradient-1">
            <stop stop-color="#FBDA09" offset="0%"></stop>
            <stop stop-color="#FFBC00" offset="100%"></stop>
        </linearGradient>
        <path d="M16.9429844,8.91059628 C18.000579,9.5164206 18.0008211,10.4985315 16.9429844,11.1045121 L1.92880985,19.7053656 C0.871215238,20.3112075 0.0138654113,19.8096966 0.0138654113,18.5845614 L0.0138654113,1.43082858 C0.0138654113,0.205983616 0.870973119,-0.295970459 1.92880985,0.309992555 L16.9429844,8.91059628 L16.9429844,8.91059628 Z" id="path-2"></path>
        <linearGradient x1="0%" y1="58.4755255%" x2="69.3064856%" y2="39.0830098%" id="linearGradient-4">
            <stop stop-color="#01E2FF" offset="0%"></stop>
            <stop stop-color="#01C4FF" offset="100%"></stop>
        </linearGradient>
        <linearGradient x1="20.2810876%" y1="20.1019903%" x2="83.820166%" y2="83.6214476%" id="linearGradient-5">
            <stop stop-color="#28D781" offset="0%"></stop>
            <stop stop-color="#02F076" offset="100%"></stop>
        </linearGradient>
        <linearGradient x1="74.4881466%" y1="17.4301299%" x2="10.1079427%" y2="91.1838038%" id="linearGradient-6">
            <stop stop-color="#F2414E" offset="0%"></stop>
            <stop stop-color="#E02554" offset="100%"></stop>
        </linearGradient>
    </defs>
    <g id="Symbols" stroke="none" stroke-width="1" fill="none" fill-rule="evenodd">
        <g id="Foot-Mobi" transform="translate(-176.000000, -96.000000)">
            <g id="Google-Play-Badge">
                <g transform="translate(176.000000, 96.000000)">
                    <rect id="O" fill="#3C3C3C" x="0" y="0" width="96" height="32" rx="4"></rect>
                    <g id="googleplay" transform="translate(30.085106, 14.963636)" fill="#FFFFFF">
                        <g id="big-P" transform="translate(39.131019, 0.315789)">
                            <path d="M0.313549832,2.21977375e-07 L3.86875928,0 C3.86875928,0 5.91539536,0.350699013 5.9153952,2.71767149 C5.91539504,5.08464398 3.86875928,5.43534299 3.86875928,5.43534299 L0.313549832,5.43534321 L0.313549832,2.21977375e-07 Z M1.00335946,1.31475238 L1.00335946,4.23157895 L3.41680934,4.23157895 C3.41680934,4.23157895 4.51511758,4.23157895 4.51511758,2.77316567 C4.51511758,1.31475238 3.41680934,1.31475238 3.41680934,1.31475238 L1.00335946,1.31475238 Z" id="Combined-Shape"></path>
                            <rect id="Rectangle-6" x="0" y="0" width="1.25419933" height="8.84210526"></rect>
                        </g>
                        <rect id="y" x="45.7782755" y="0.315789474" width="1.25419933" height="8.84210526"></rect>
                        <path d="M51.6810404,8.52569262 C51.3355897,8.81275071 50.7833007,9.08292004 49.9110148,9.13778783 C47.9126553,9.26348696 47.9116141,7.42691189 47.9116141,7.30306332 C47.9116141,7.17921476 47.813048,5.68146587 49.4026905,5.44339021 C50.5283139,5.27480922 51.3166927,5.55569756 51.6810404,5.73404528 L51.6810404,5.4742487 C51.5916923,5.13017536 51.3144232,4.49796464 50.483182,4.49796464 C49.3411803,4.49796464 49.0889876,5.11979852 49.0889876,5.11979852 L48.044291,4.49796464 C48.044291,4.49796464 48.6288844,3.28421053 50.3829931,3.28421053 C52.5640571,3.28421053 52.9353698,4.79932926 52.9353698,5.30961914 C52.9353698,5.31210299 52.9353263,5.31457078 52.9352397,5.3170226 L52.9352397,9.15505757 L51.6810404,9.15505757 L51.6810404,8.52569262 Z M51.591446,6.63176398 C51.591446,6.63176398 49.1752138,5.97585325 49.0912229,7.34293791 C49.0072319,8.71002257 51.4092564,8.05358759 51.6238727,7.0844778 C51.6238726,6.7763055 51.591446,6.63176398 51.591446,6.63176398 Z" id="a"></path>
                        <path d="M55.2886593,8.82242655 L54.118701,11.6210526 L55.3729003,11.6210526 L58.7660974,3.50427632 L57.5118981,3.50427632 L55.915759,7.32235816 L54.3068309,3.47368421 L53.0526316,3.47368421 L55.2886593,8.82242655 Z" id="y"></path>
                        <path d="M36.3232021,5.54056776 L32.356548,7.19160942 C32.356548,7.19160942 32.6127292,8.10479798 33.8053322,8.11091855 C34.7391848,8.11571119 35.2663499,7.27727885 35.2663499,7.27727885 L36.2727433,7.96370654 C36.2727433,7.96370654 35.460639,9.28650832 33.7974051,9.28650832 C31.75352,9.28650832 30.8533035,7.4865313 30.8533035,6.31756684 C30.8533035,5.19129975 31.5678439,3.28421053 33.6705722,3.28421053 C35.7733005,3.28421053 36.3232021,5.54056776 36.3232021,5.54056776 Z M34.8139741,5.07285176 C34.8139741,5.07285176 34.3149139,4.3081205 33.5495322,4.44915385 C31.9305068,4.74748412 32.1342474,6.17441426 32.1342474,6.17441426 L34.8139741,5.07285176 Z" id="e"></path>
                        <rect id="i" x="28.9720045" y="0.315789474" width="1.32686753" height="8.82352941"></rect>
                        <path d="M26.8486385,3.47597449 L28.0751982,3.48664633 L28.0751982,9.0540229 C28.0751982,10.4764723 27.2343203,11.9780042 25.2546901,11.9780042 C23.2750598,11.9780042 22.6357121,10.2114984 22.6357121,10.2114984 L23.7621928,9.73436144 C23.7621928,9.73436144 24.1057621,10.8230577 25.3132283,10.8230563 C26.688268,10.8230546 26.8487909,9.56313748 26.8487909,9.13186418 L26.8487909,8.52767486 C26.8487909,8.52767486 26.373015,9.27763492 25.1912736,9.27763656 C23.9100248,9.27763835 22.387458,8.17205293 22.387458,6.287249 C22.387458,4.40244508 23.8211503,3.32435838 25.2060987,3.28514269 C26.3154297,3.25373129 26.8486385,4.02661325 26.8486385,4.02661325 L26.8486385,3.47597449 Z M25.2960022,8.14627933 C26.1904599,8.14627933 26.9155611,7.32107868 26.9155611,6.30314208 C26.9155611,5.28520548 26.1904599,4.46000482 25.2960022,4.46000482 C24.4015446,4.46000482 23.6764433,5.28520548 23.6764433,6.30314208 C23.6764433,7.32107868 24.4015446,8.14627933 25.2960022,8.14627933 Z" id="g"></path>
                        <path d="M18.8510734,9.28421053 C17.2022539,9.28421053 15.8656215,7.94106478 15.8656215,6.28421053 C15.8656215,4.62735628 17.2022539,3.28421053 18.8510734,3.28421053 C20.499893,3.28421053 21.8365254,4.62735628 21.8365254,6.28421053 C21.8365254,7.94106478 20.499893,9.28421053 18.8510734,9.28421053 Z M18.8315607,8.10773994 C19.7583482,8.10773994 20.5096579,7.29131801 20.5096579,6.28421053 C20.5096579,5.27710304 19.7583482,4.46068111 18.8315607,4.46068111 C17.9047732,4.46068111 17.1534635,5.27710304 17.1534635,6.28421053 C17.1534635,7.29131801 17.9047732,8.10773994 18.8315607,8.10773994 Z" id="o"></path>
                        <path d="M12.3919469,9.28421053 C10.7431273,9.28421053 9.40649496,7.94106478 9.40649496,6.28421053 C9.40649496,4.62735628 10.7431273,3.28421053 12.3919469,3.28421053 C14.0407665,3.28421053 15.3773988,4.62735628 15.3773988,6.28421053 C15.3773988,7.94106478 14.0407665,9.28421053 12.3919469,9.28421053 Z M12.3724341,8.10773994 C13.2992216,8.10773994 14.0505313,7.29131801 14.0505313,6.28421053 C14.0505313,5.27710304 13.2992216,4.46068111 12.3724341,4.46068111 C11.4456467,4.46068111 10.694337,5.27710304 10.694337,6.28421053 C10.694337,7.29131801 11.4456467,8.10773994 12.3724341,8.10773994 Z" id="o"></path>
                        <g id="big-g">
                            <polygon id="Rectangle-1" points="4.68306187 4.23529412 8.62463894 4.23529412 8.58561343 5.49019608 4.68306187 5.49019608"></polygon>
                            <path d="M7.84899966,1.28263388 C7.08181637,0.468693009 5.9595399,3.62830333e-14 4.6245236,3.62830333e-14 C2.07046974,3.62830333e-14 1.7415856e-13,2.0805591 1.7415856e-13,4.64705882 C1.7415856e-13,7.21355854 2.0704722,9.29043762 4.6245236,9.29411765 C7.22124482,9.31763174 9.38708471,7.47755821 8.95399295,4.28193934 C8.95399295,4.2663595 8.95392753,4.25081103 8.9537969,4.23529412 L7.80243687,4.23529412 C7.81181109,4.36870736 7.81507981,4.50600806 7.81196307,4.64705882 C7.81470705,6.92945772 6.50634746,8 4.66354911,8 C2.82075076,8 1.32686753,6.4988371 1.32686753,4.64705882 C1.32686753,2.79528054 2.82075076,1.29411765 4.66354911,1.29411765 C5.58547157,1.29411765 6.3844874,1.61097924 6.94705645,2.18897224 L7.84899966,1.28263388 Z" id="Oval-1"></path>
                        </g>
                    </g>
                    <path d="M31.6831413,8.40159574 C31.9867775,8.40159574 32.2117309,8.34175592 32.3580083,8.22207447 C32.5042856,8.10239302 32.5774232,7.93506313 32.5774232,7.72007979 C32.5774232,7.53390864 32.4965286,7.37932242 32.334737,7.25631649 C32.1729454,7.13331056 31.9380187,7.07180851 31.6299498,7.07180851 C31.3883705,7.07180851 31.1877963,7.12998612 31.028221,7.24634309 C30.8686458,7.36270005 30.7888593,7.51174555 30.7888593,7.69348404 L29.8480349,7.69348404 L29.8447104,7.67353723 C29.8314125,7.27238275 29.9987424,6.9471422 30.3467051,6.69780585 C30.6946678,6.4484695 31.1224118,6.32380319 31.6299498,6.32380319 C32.2194917,6.32380319 32.6860207,6.44348285 33.0295508,6.68284574 C33.3730809,6.92220864 33.5448434,7.26351729 33.5448434,7.70678191 C33.5448434,7.92841423 33.472814,8.13120475 33.328753,8.31515957 C33.184692,8.49911439 32.986334,8.64317324 32.7336732,8.74734043 C33.0195789,8.84264232 33.2389916,8.98559302 33.3919178,9.17619681 C33.5448441,9.3668006 33.6213061,9.60061918 33.6213061,9.87765957 C33.6213061,10.3231405 33.4373541,10.6722062 33.0694444,10.924867 C32.7015348,11.1775279 32.221708,11.3038564 31.6299498,11.3038564 C31.1201954,11.3038564 30.6802619,11.1852849 30.3101359,10.9481383 C29.94001,10.7109917 29.7615986,10.3652505 29.7748966,9.91090426 L29.778221,9.89095745 L30.72237,9.89095745 C30.72237,10.0793449 30.8071431,10.2378096 30.9766918,10.3663564 C31.1462405,10.4949031 31.363991,10.5591755 31.6299498,10.5591755 C31.9446676,10.5591755 32.1934462,10.4943491 32.3762928,10.3646941 C32.5591395,10.2350392 32.6505615,10.0693716 32.6505615,9.86768617 C32.6505615,9.61280901 32.5691128,9.42608659 32.4062131,9.3075133 C32.2433133,9.18894001 32.0022918,9.12965426 31.6831413,9.12965426 L31.028221,9.12965426 L31.028221,8.40159574 L31.6831413,8.40159574 Z M36.9856678,10.1901596 L35.2868647,10.1901596 L34.9577423,11.2340426 L33.9770242,11.2340426 L35.6425827,6.39361702 L36.6365987,6.39361702 L38.2955083,11.2340426 L37.3147902,11.2340426 L36.9856678,10.1901596 Z M35.5262264,9.42885638 L36.7463061,9.42885638 L36.1479019,7.52726064 L36.1279551,7.52726064 L35.5262264,9.42885638 Z M41.9025561,7.14162234 L39.7183806,7.14162234 L39.7183806,11.2340426 L38.7476359,11.2340426 L38.7476359,6.39361702 L41.9025561,6.39361702 L41.9025561,7.14162234 Z M43.5115987,9.4787234 L43.5115987,11.2340426 L42.540854,11.2340426 L42.540854,6.39361702 L44.4690455,6.39361702 C45.0253426,6.39361702 45.4630599,6.53545957 45.7822104,6.81914894 C46.1013609,7.1028383 46.2609338,7.47628314 46.2609338,7.93949468 C46.2609338,8.40270622 46.1013609,8.77504292 45.7822104,9.05651596 C45.4630599,9.337989 45.0253426,9.4787234 44.4690455,9.4787234 L43.5115987,9.4787234 Z M43.5115987,8.73071809 L44.4690455,8.73071809 C44.7394369,8.73071809 44.9444437,8.65702645 45.0840721,8.50964096 C45.2237005,8.36225547 45.2935136,8.1744249 45.2935136,7.94614362 C45.2935136,7.71342969 45.2242545,7.52116654 45.0857343,7.3693484 C44.9472141,7.21753027 44.7416533,7.14162234 44.4690455,7.14162234 L43.5115987,7.14162234 L43.5115987,8.73071809 Z M48.6811466,8.54454787 L48.7576093,8.80053191 L48.7775561,8.80053191 L49.6917849,6.39361702 L50.7190455,6.39361702 L49.0667849,10.3164894 C48.9249402,10.6334236 48.7592725,10.8772155 48.5697769,11.0478723 C48.3802813,11.2185292 48.1082317,11.3038564 47.75362,11.3038564 C47.6982119,11.3038564 47.6350476,11.3021942 47.5641253,11.2988697 C47.493203,11.2955452 47.440012,11.2916667 47.4045508,11.287234 L47.3979019,10.5458777 C47.4222814,10.5503103 47.464391,10.5536347 47.5242317,10.5558511 C47.5840724,10.5580674 47.6295063,10.5591755 47.6605349,10.5591755 C47.8378407,10.5591755 47.970264,10.5203905 48.0578088,10.4428191 C48.1453536,10.3652478 48.2179371,10.2477845 48.2755615,10.0904255 L48.3486998,9.90757979 L46.6432476,6.39361702 L47.6904551,6.39361702 L48.6811466,8.54454787 Z M53.0395242,8.40159574 C53.3431605,8.40159574 53.5681139,8.34175592 53.7143913,8.22207447 C53.8606686,8.10239302 53.9338061,7.93506313 53.9338061,7.72007979 C53.9338061,7.53390864 53.8529116,7.37932242 53.69112,7.25631649 C53.5293284,7.13331056 53.2944017,7.07180851 52.9863327,7.07180851 C52.7447535,7.07180851 52.5441793,7.12998612 52.384604,7.24634309 C52.2250288,7.36270005 52.1452423,7.51174555 52.1452423,7.69348404 L51.2044178,7.69348404 L51.2010934,7.67353723 C51.1877954,7.27238275 51.3551253,6.9471422 51.7030881,6.69780585 C52.0510508,6.4484695 52.4787947,6.32380319 52.9863327,6.32380319 C53.5758747,6.32380319 54.0424037,6.44348285 54.3859338,6.68284574 C54.7294639,6.92220864 54.9012264,7.26351729 54.9012264,7.70678191 C54.9012264,7.92841423 54.8291969,8.13120475 54.6851359,8.31515957 C54.5410749,8.49911439 54.342717,8.64317324 54.0900561,8.74734043 C54.3759618,8.84264232 54.5953745,8.98559302 54.7483008,9.17619681 C54.9012271,9.3668006 54.9776891,9.60061918 54.9776891,9.87765957 C54.9776891,10.3231405 54.7937371,10.6722062 54.4258274,10.924867 C54.0579178,11.1775279 53.578091,11.3038564 52.9863327,11.3038564 C52.4765784,11.3038564 52.0366449,11.1852849 51.6665189,10.9481383 C51.2963929,10.7109917 51.1179816,10.3652505 51.1312796,9.91090426 L51.134604,9.89095745 L52.078753,9.89095745 C52.078753,10.0793449 52.163526,10.2378096 52.3330748,10.3663564 C52.5026235,10.4949031 52.720374,10.5591755 52.9863327,10.5591755 C53.3010506,10.5591755 53.5498292,10.4943491 53.7326758,10.3646941 C53.9155225,10.2350392 54.0069444,10.0693716 54.0069444,9.86768617 C54.0069444,9.61280901 53.9254958,9.42608659 53.762596,9.3075133 C53.5996963,9.18894001 53.3586748,9.12965426 53.0395242,9.12965426 L52.384604,9.12965426 L52.384604,8.40159574 L53.0395242,8.40159574 Z M58.6512264,6.39361702 L59.6252955,6.39361702 L59.6252955,11.2340426 L58.6512264,11.2340426 L58.6512264,8.00598404 L58.6312796,8.00265957 L56.6798168,11.2340426 L55.7123966,11.2340426 L55.7123966,6.39361702 L56.6798168,6.39361702 L56.6798168,9.61835106 L56.6997636,9.62167553 L58.6512264,6.39361702 Z M63.8639923,7.14162234 L62.4943115,7.14162234 L62.4943115,11.2340426 L61.5235668,11.2340426 L61.5235668,7.14162234 L60.1605349,7.14162234 L60.1605349,6.39361702 L63.8639923,6.39361702 L63.8639923,7.14162234 Z M67.3812796,9.10638298 L65.3766253,9.10638298 L65.3766253,10.4893617 L67.7203753,10.4893617 L67.7203753,11.2340426 L64.4058806,11.2340426 L64.4058806,6.39361702 L67.7137264,6.39361702 L67.7137264,7.14162234 L65.3766253,7.14162234 L65.3766253,8.35837766 L67.3812796,8.35837766 L67.3812796,9.10638298 Z M70.0109338,11.2340426 L70.0109338,6.39361702 L71.6465721,6.39361702 C72.2161672,6.39361702 72.6605333,6.50443152 72.9796838,6.72606383 C73.2988343,6.94769614 73.4584072,7.27903148 73.4584072,7.72007979 C73.4584072,7.94392842 73.3991215,8.14394859 73.2805482,8.32014628 C73.1619749,8.49634397 72.9896583,8.62876729 72.7635934,8.71742021 C73.0539317,8.77947726 73.2716822,8.91245465 73.4168514,9.11635638 C73.5620205,9.32025811 73.634604,9.55629299 73.634604,9.82446809 C73.634604,10.2876796 73.48168,10.6384075 73.1758274,10.8766622 C72.8699748,11.114917 72.4366902,11.2340426 71.8759604,11.2340426 L70.0109338,11.2340426 Z M70.9816785,9.09308511 L70.9816785,10.4893617 L71.8759604,10.4893617 C72.1330539,10.4893617 72.3291955,10.4334004 72.4643913,10.3214761 C72.599587,10.2095517 72.6671838,10.0438841 72.6671838,9.82446809 C72.6671838,9.58732151 72.6095603,9.40613981 72.4943115,9.28091755 C72.3790627,9.1556953 72.1973269,9.09308511 71.9490987,9.09308511 L70.9816785,9.09308511 Z M70.9816785,8.42154255 L71.6798168,8.42154255 C71.9391266,8.42154255 72.1385927,8.3683516 72.278221,8.26196809 C72.4178494,8.15558457 72.4876625,8.00044428 72.4876625,7.79654255 C72.4876625,7.57269392 72.4172953,7.40758032 72.2765588,7.30119681 C72.1358223,7.1948133 71.9258288,7.14162234 71.6465721,7.14162234 L70.9816785,7.14162234 L70.9816785,8.42154255 Z" id="Загрузите-в" fill="#FFFFFF"></path>
                    <g id="logo_play" transform="translate(7.943262, 6.000000)">
                        <mask id="mask-3" fill="white">
                            <use xlink:href="#path-2"></use>
                        </mask>
                        <use id="yellow" fill="url(#linearGradient-1)" xlink:href="#path-2"></use>
                        <polygon id="blue" fill="url(#linearGradient-4)" mask="url(#mask-3)" points="-7.10542736e-15 0.0634780905 9.77432733 9.84765778 -0.126250014 20.0185562"></polygon>
                        <polygon id="green" fill="url(#linearGradient-5)" mask="url(#mask-3)" points="-2.00996496 -1.95073632 9.77316734 9.85051965 13.2764299 6.48459355"></polygon>
                        <polygon id="red" fill="url(#linearGradient-6)" mask="url(#mask-3)" points="9.77477244 9.84826813 15.1379162 15.2926787 -0.883965909 20.7370892"></polygon>
                    </g>
                </g>
            </g>
        </g>
    </g>
</svg>