<?xml version="1.0" encoding="utf-8"?>
<!-- Generator: Adobe Illustrator 21.0.2, SVG Export Plug-In . SVG Version: 6.00 Build 0)  -->
<svg version="1.1" id="Layer_1" xmlns="http://www.w3.org/2000/svg" xmlns:xlink="http://www.w3.org/1999/xlink" x="0px" y="0px"
	 viewBox="0 0 24 24" style="enable-background:new 0 0 24 24;" xml:space="preserve">
<style type="text/css">
	.st0{fill:#FF3C41;}
</style>
<path id="path-1_2_" class="st0" d="M12,3c1.7,0,3,1.3,3,3c0,2.1-1.8,5-3,5S9,8.1,9,6C9,4.3,10.3,3,12,3 M15.3,16.2l3.2,0.9
	c0.7,0.2,1.4,1.1,1.4,1.9v2H4v-2c0-0.8,0.7-1.7,1.4-1.9l3.2-0.9l2.2,1.5l1.1,0.8l1.1-0.8L15.3,16.2 M12,1C9.2,1,7,3.2,7,6s2.2,7,5,7
	s5-4.2,5-7S14.8,1,12,1L12,1z M15,14l-3,2l-3-2l-4.1,1.2C3.3,15.6,2,17.3,2,19v4h20v-4c0-1.7-1.3-3.4-2.9-3.8L15,14L15,14z"/>
</svg>
