<?xml version="1.0" encoding="UTF-8"?>
<svg width="96px" height="36px" viewBox="0 0 96 36" version="1.1" xmlns="http://www.w3.org/2000/svg" xmlns:xlink="http://www.w3.org/1999/xlink">
    <!-- Generator: Sketch 42 (36781) - http://www.bohemiancoding.com/sketch -->
    <title>DOC+_logo</title>
    <desc>Created with Sketch.</desc>
    <defs></defs>
    <g id="Symbols" stroke="none" stroke-width="1" fill="none" fill-rule="evenodd">
        <g id="Head" transform="translate(-107.000000, -11.000000)" fill="#FF3C41">
            <g id="DOC+_logo" transform="translate(107.000000, 11.000000)">
                <polygon id="+" points="96 21 90 21 90 15 84 15 84 21 78 21 78 27 84 27 84 33 90 33 90 27 96 27"></polygon>
                <path d="M70.243215,19.756785 L74.485515,15.514485 C69.807615,10.836285 62.193615,10.838685 57.515715,15.514485 C52.836315,20.192385 52.836315,27.806385 57.515715,32.484285 C59.854815,34.823385 62.927415,35.993985 66.001215,35.993985 C69.073815,35.993985 72.146415,34.823385 74.485515,32.484285 L70.243215,28.241985 C67.905615,30.580185 64.098015,30.582285 61.758015,28.241985 C59.418615,25.903335 59.418615,22.095585 61.758015,19.756785 C64.098015,17.416485 67.905615,17.418585 70.243215,19.756785" id="c"></path>
                <path d="M39,30 C35.6919,30 33,27.3081 33,24 C33,20.6919 35.6919,18 39,18 C42.3081,18 45,20.6919 45,24 C45,27.3081 42.3081,30 39,30 M39,12 C32.3835,12 27,17.3835 27,24 C27,30.6165 32.3835,36 39,36 C45.6165,36 51,30.6165 51,24 C51,17.3835 45.6165,12 39,12" id="o"></path>
                <path d="M12,30 C8.6919,30 6,27.3081 6,24 C6,20.6919 8.6919,18 12,18 C15.3081,18 18,20.6919 18,24 C18,27.3081 15.3081,30 12,30 L12,30 Z M18,13.6239 C16.2324,12.5976 14.1867,12 12,12 C5.3835,12 0,17.3835 0,24 C0,30.6165 5.3835,36 12,36 C18.6165,36 24,30.6165 24,24 L24,0 L18,0 L18,13.6239 Z" id="d"></path>
            </g>
        </g>
    </g>
</svg>