<svg xmlns="http://www.w3.org/2000/svg" width="42" height="32" viewBox="0 0 42 32">
    <path fill="#3C3C3C" fill-rule="nonzero" d="M9.798 23.427c1.149 0 3.977-.204 6.09-1.768v1.186h4.265l.004-5.215 1.781-1.868 3.876 7.083h5.117l-5.872-10.12 5.72-6.38H25.54l-5.383 6.26V.58h-4.269v1.903C14.588 1.069 12.482 0 9.196 0 2.084 0 .749 4.384.749 6.838c0 3.372 1.789 5.246 4.905 6.011l4.418 1.102c2.33.584 3.997 1.013 3.997 2.76 0 2.332-2.423 2.883-4.603 2.883-3.996 0-4.66-2.36-4.66-3.617H.416c0 2.76 1.392 7.45 9.382 7.45zm2.907-13.276L7.35 8.83c-.91-.214-2.333-.584-2.333-2.33 0-1.993 2.09-2.669 3.844-2.669 3.995 0 4.36 2.364 4.479 3.374h2.548v4.15c-.935-.553-2.038-.912-3.183-1.204zM4.728 27.09h1.445c-.079-1.035-.917-2.487-2.992-2.487C1.396 24.604 0 25.852 0 28.311 0 30.73 1.32 32 3.163 32c1.739 0 2.724-1.064 3.01-2.595H4.728c-.171.862-.735 1.354-1.539 1.354-1.22 0-1.746-1.168-1.746-2.428 0-1.984 1.051-2.488 1.746-2.488 1.197 0 1.425.823 1.54 1.248zm3.213 1.493v-1.976H6.593v5.209h1.348V30.17l.56-.592 1.225 2.238h1.616L9.488 28.62l1.805-2.012H9.64l-1.698 1.976zm8.332.618c0 1.877-1.243 2.751-2.619 2.751-1.374 0-2.627-.86-2.627-2.739 0-1.88 1.253-2.742 2.627-2.742 1.376 0 2.62.852 2.62 2.73m-3.861 0c0 .667.2 1.596 1.241 1.596 1.042 0 1.233-.919 1.233-1.584 0-.67-.191-1.588-1.233-1.588-1.041 0-1.241.908-1.241 1.576zm8.925-2.595h-4.136v2.441c0 1.586-.21 1.789-.614 1.789-.2 0-.371-.019-.4-.039v1.019c.2.075.585.114.82.114.948 0 1.54-.629 1.54-2.621v-1.606h1.442v4.113h1.348v-5.21zm2.036 1.977v-1.976h-1.347v5.209h1.347V30.17l.562-.592 1.223 2.238h1.616L24.92 28.62l1.807-2.012h-1.654l-1.699 1.976zm8.332.618c0 1.877-1.24 2.751-2.617 2.751-1.376 0-2.627-.86-2.627-2.739 0-1.88 1.251-2.742 2.627-2.742 1.377 0 2.617.852 2.617 2.73m-3.857 0c0 .667.199 1.596 1.24 1.596 1.037 0 1.235-.919 1.235-1.584 0-.67-.198-1.588-1.235-1.588-1.041 0-1.24.908-1.24 1.576m4.294-2.594h2.321c1.148 0 1.988.476 1.988 1.345 0 .6-.42.986-.957 1.123.526.127 1.11.467 1.11 1.319 0 .965-.72 1.422-1.885 1.422h-2.577v-5.21zm1.346 2.109h.878c.447 0 .764-.182.764-.59 0-.425-.305-.58-.754-.58h-.888v1.17zm0 2.161h.99c.499 0 .807-.155.807-.67 0-.455-.325-.665-.822-.665h-.975v1.335zM42 29.202c0 1.877-1.239 2.751-2.617 2.751-1.374 0-2.63-.86-2.63-2.739 0-1.88 1.256-2.742 2.63-2.742 1.378 0 2.617.852 2.617 2.73m-3.86 0c0 .667.203 1.596 1.243 1.596 1.041 0 1.231-.919 1.231-1.584 0-.67-.19-1.588-1.231-1.588-1.04 0-1.243.908-1.243 1.576"/>
</svg>
